<svg width="230" height="55" viewBox="0 0 230 55" fill="none" xmlns="http://www.w3.org/2000/svg">
<path d="M17.5758 34.0837C18.1455 34.0512 18.7192 34.0349 19.297 34.0349L19.4801 19.2156H17.7467L17.5758 34.0837ZM14.7316 17.8362C15.8139 17.9013 17.5636 17.9338 19.9806 17.9338C22.3976 17.9338 25.0872 17.7507 28.0494 17.3845H28.1227C28.3099 17.3845 28.4604 17.4496 28.5743 17.5798C28.6883 17.7019 28.7452 17.8443 28.7452 18.0071V18.0925L28.257 23.2927C28.2407 23.4555 28.1715 23.5938 28.0494 23.7078C27.9274 23.8136 27.7768 23.8665 27.5978 23.8665C27.4187 23.8665 27.2682 23.7973 27.1461 23.6589C27.0322 23.5125 26.9752 23.3619 26.9752 23.2073V23.1584L27.4025 18.7639C25.0831 18.9999 22.8737 19.1423 20.774 19.1912L20.6764 26.9915C21.7343 26.9915 22.6092 26.9304 23.3009 26.8083C24.0008 26.6781 24.3995 26.613 24.4972 26.613C24.603 26.613 24.7128 26.6619 24.8268 26.7595C24.9489 26.8572 25.014 26.9996 25.0221 27.1868C25.0384 27.3658 24.9977 27.5204 24.9 27.6506C24.8024 27.7808 24.6762 27.8582 24.5216 27.8826C23.1707 28.1348 21.8808 28.261 20.652 28.261L20.6031 34.0593C20.9531 34.0756 21.3193 34.0919 21.7018 34.1082C22.0843 34.1244 22.4261 34.1448 22.7272 34.1692C23.2236 34.218 23.4718 34.4581 23.4718 34.8894C23.4555 35.0522 23.3864 35.1905 23.2643 35.3044C23.1503 35.4102 23.012 35.4631 22.8492 35.4631H22.8004C21.5472 35.3655 20.3305 35.3167 19.1505 35.3167C17.9705 35.3167 16.4365 35.4469 14.5485 35.7073H14.4752C14.288 35.7073 14.1334 35.6422 14.0114 35.512C13.8893 35.3899 13.8282 35.2475 13.8282 35.0847C13.8282 34.922 13.8771 34.7795 13.9747 34.6575C14.0805 34.5354 14.2148 34.4622 14.3776 34.4377C15.0449 34.3401 15.6878 34.2668 16.3063 34.218L16.4772 19.1912C16.1761 19.1749 15.875 19.1627 15.5739 19.1545C15.2727 19.1464 15.0001 19.1342 14.756 19.1179C14.284 19.0854 14.048 18.8656 14.048 18.4587C14.048 18.2878 14.1131 18.1414 14.2433 18.0193C14.3735 17.8972 14.5281 17.8362 14.7072 17.8362H14.7316ZM42.2218 24.3914H41.7335C41.4894 24.3914 41.1801 24.3751 40.8058 24.3425L40.4884 34.6086C41.0906 34.511 41.6888 34.4459 42.2828 34.4133L42.4781 24.3669C42.3886 24.3832 42.3032 24.3914 42.2218 24.3914ZM40.2565 22.9875C40.6959 23.0527 41.4243 23.0852 42.4415 23.0852C43.4588 23.0852 44.4231 22.9713 45.3346 22.7434C45.5218 22.7434 45.6764 22.8126 45.7985 22.9509C45.9205 23.0811 45.9816 23.2236 45.9816 23.3782C45.9816 23.5328 45.9327 23.6711 45.8351 23.7932C45.7456 23.9153 45.5869 24.0007 45.359 24.0496C45.1393 24.0903 44.887 24.1309 44.6022 24.1716C44.3173 24.2042 44.0366 24.2408 43.7599 24.2815L43.5646 34.3889C44.2726 34.3889 44.7853 34.4093 45.1027 34.45C45.6235 34.5151 45.8839 34.7348 45.8839 35.1091C45.8839 35.3126 45.8147 35.4713 45.6764 35.5852C45.5462 35.7073 45.4078 35.7683 45.2614 35.7683H45.1881C43.3896 35.5486 41.6481 35.63 39.9635 36.0125H39.8292C39.6583 36.0125 39.5078 35.9473 39.3776 35.8171C39.2474 35.6951 39.1823 35.5527 39.1823 35.3899V35.3655L39.2555 33.1316C38.2057 35.0522 36.8466 36.0125 35.1783 36.0125C33.7379 36.0125 32.6596 35.3655 31.9435 34.0715C31.3738 33.0217 31.089 31.7847 31.089 30.3606C31.089 28.1552 31.504 26.141 32.3341 24.3181L30.1368 24.2571C29.9578 24.2408 29.8073 24.1757 29.6852 24.0618C29.5712 23.9397 29.5143 23.7932 29.5143 23.6223C29.5143 23.4514 29.5753 23.3049 29.6974 23.1829C29.8195 23.0527 29.9741 22.9875 30.1613 22.9875L33.3839 23.0608C33.5629 23.0852 33.7094 23.1584 33.8234 23.2805C33.9454 23.3944 34.0065 23.5084 34.0065 23.6223C34.0065 23.7688 33.9739 23.9071 33.9088 24.0374C33.3636 24.5826 32.9119 26.0149 32.5538 28.3342C32.4236 29.1806 32.3585 29.8601 32.3585 30.3728C32.3585 30.8855 32.3992 31.4023 32.4806 31.9231C32.5701 32.4358 32.7207 32.8997 32.9323 33.3147C33.4124 34.2668 34.153 34.7429 35.1539 34.7429C36.1549 34.7429 37.0297 34.1855 37.7784 33.0706C38.5271 31.9719 39.0642 30.446 39.3898 28.4929L39.5363 23.5857C39.5363 23.4067 39.6054 23.2642 39.7438 23.1584C39.8821 23.0445 40.0286 22.9875 40.1832 22.9875H40.2565ZM52.2438 24.9651C51.8287 25.0302 51.2713 25.0627 50.5714 25.0627H50.4738V34.2424C50.8807 34.2424 51.2306 34.2424 51.5236 34.2424C51.8247 34.2424 52.0647 34.2506 52.2438 34.2668V24.9651ZM50.5958 23.7566C51.4747 23.7566 52.2397 23.6915 52.8907 23.5613C53.0779 23.5613 53.2325 23.6305 53.3546 23.7688C53.4848 23.899 53.5499 24.0455 53.5499 24.2083V25.4656C54.5021 24.0658 55.8082 23.366 57.4684 23.366C59.1367 23.366 60.2231 24.3914 60.7277 26.4421C60.9067 27.142 60.9962 27.8215 60.9962 28.4807C60.9962 29.1399 60.9759 29.7136 60.9352 30.2019C60.8945 30.682 60.8416 31.1622 60.7765 31.6423C60.6626 32.5945 60.5201 33.4164 60.3492 34.1082C60.6585 34.1244 60.9759 34.1407 61.3014 34.157C61.6351 34.1733 61.9321 34.1936 62.1925 34.218C62.6645 34.275 62.9005 34.5151 62.9005 34.9382C62.8842 35.101 62.811 35.2393 62.6808 35.3533C62.5506 35.4591 62.4041 35.512 62.2413 35.512H62.1925C61.4113 35.4306 60.5568 35.3899 59.629 35.3899C58.7094 35.3899 57.8468 35.4794 57.0411 35.6584C56.8702 35.6584 56.7197 35.5933 56.5895 35.4631C56.4593 35.3248 56.3942 35.1783 56.3942 35.0237C56.3942 34.8691 56.443 34.7307 56.5406 34.6086C56.6464 34.4866 56.8214 34.4052 57.0656 34.3645C57.4318 34.2913 58.0828 34.2139 59.0187 34.1326C59.2872 33.2048 59.4703 32.1957 59.568 31.1052C59.6656 30.0066 59.7145 29.2579 59.7145 28.8591C59.7145 26.0434 58.9658 24.6355 57.4684 24.6355C56.3942 24.6355 55.4624 25.1278 54.673 26.1125C53.9243 27.0321 53.5499 27.9924 53.5499 28.9934V29.0178L53.5255 34.3889C53.672 34.4052 53.8144 34.4215 53.9528 34.4377C54.0911 34.4459 54.2335 34.4622 54.38 34.4866C54.5346 34.5028 54.6648 34.572 54.7706 34.6941C54.8846 34.808 54.9415 34.9504 54.9415 35.1213C54.9415 35.2922 54.8724 35.4428 54.734 35.573C54.6038 35.7032 54.4899 35.7683 54.3922 35.7683C54.2946 35.7683 54.2376 35.7561 54.2213 35.7317C52.7565 35.5852 51.7474 35.512 51.194 35.512C50.1116 35.512 49.2571 35.5689 48.6305 35.6829C48.0039 35.8049 47.6295 35.866 47.5074 35.866C47.3935 35.866 47.2796 35.7968 47.1656 35.6584C47.0517 35.5201 46.9948 35.3736 46.9948 35.219C46.9948 35.0644 47.0395 34.926 47.129 34.804C47.2185 34.6819 47.3772 34.6005 47.6051 34.5598C48.0608 34.4703 48.5898 34.3971 49.192 34.3401V25.0139C48.1015 24.9651 47.479 24.9081 47.3243 24.843C47.1616 24.8267 47.0273 24.7576 46.9215 24.6355C46.8239 24.5134 46.775 24.3629 46.775 24.1838C46.775 24.0048 46.8442 23.8583 46.9825 23.7444C47.1209 23.6223 47.2348 23.5613 47.3243 23.5613C47.422 23.5613 47.4749 23.5653 47.483 23.5735C47.4993 23.5816 47.597 23.5938 47.776 23.6101C47.955 23.6264 48.187 23.6467 48.4718 23.6711C49.1473 23.7281 49.8553 23.7566 50.5958 23.7566ZM68.7721 24.9651C68.3571 25.0302 67.7996 25.0627 67.0997 25.0627H67.0021V34.2424C67.409 34.2424 67.7589 34.2424 68.0519 34.2424C68.353 34.2424 68.5931 34.2506 68.7721 34.2668V24.9651ZM67.1241 23.7566C68.0031 23.7566 68.768 23.6915 69.4191 23.5613C69.6062 23.5613 69.7609 23.6305 69.8829 23.7688C70.0131 23.899 70.0782 24.0455 70.0782 24.2083V25.4656C71.0304 24.0658 72.3365 23.366 73.9967 23.366C75.665 23.366 76.7514 24.3914 77.256 26.4421C77.435 27.142 77.5245 27.8215 77.5245 28.4807C77.5245 29.1399 77.5042 29.7136 77.4635 30.2019C77.4228 30.682 77.3699 31.1622 77.3048 31.6423C77.1909 32.5945 77.0485 33.4164 76.8776 34.1082C77.1868 34.1244 77.5042 34.1407 77.8297 34.157C78.1634 34.1733 78.4604 34.1936 78.7208 34.218C79.1928 34.275 79.4288 34.5151 79.4288 34.9382C79.4126 35.101 79.3393 35.2393 79.2091 35.3533C79.0789 35.4591 78.9324 35.512 78.7697 35.512H78.7208C77.9396 35.4306 77.0851 35.3899 76.1573 35.3899C75.2378 35.3899 74.3751 35.4794 73.5695 35.6584C73.3986 35.6584 73.248 35.5933 73.1178 35.4631C72.9876 35.3248 72.9225 35.1783 72.9225 35.0237C72.9225 34.8691 72.9713 34.7307 73.069 34.6086C73.1748 34.4866 73.3497 34.4052 73.5939 34.3645C73.9601 34.2913 74.6111 34.2139 75.547 34.1326C75.8156 33.2048 75.9987 32.1957 76.0963 31.1052C76.194 30.0066 76.2428 29.2579 76.2428 28.8591C76.2428 26.0434 75.4941 24.6355 73.9967 24.6355C72.9225 24.6355 71.9907 25.1278 71.2013 26.1125C70.4526 27.0321 70.0782 27.9924 70.0782 28.9934V29.0178L70.0538 34.3889C70.2003 34.4052 70.3427 34.4215 70.4811 34.4377C70.6194 34.4459 70.7618 34.4622 70.9083 34.4866C71.0629 34.5028 71.1932 34.572 71.299 34.6941C71.4129 34.808 71.4698 34.9504 71.4698 35.1213C71.4698 35.2922 71.4007 35.4428 71.2623 35.573C71.1321 35.7032 71.0182 35.7683 70.9205 35.7683C70.8229 35.7683 70.7659 35.7561 70.7496 35.7317C69.2848 35.5852 68.2757 35.512 67.7223 35.512C66.6399 35.512 65.7854 35.5689 65.1588 35.6829C64.5322 35.8049 64.1578 35.866 64.0358 35.866C63.9218 35.866 63.8079 35.7968 63.694 35.6584C63.58 35.5201 63.5231 35.3736 63.5231 35.219C63.5231 35.0644 63.5678 34.926 63.6573 34.804C63.7469 34.6819 63.9056 34.6005 64.1334 34.5598C64.5892 34.4703 65.1181 34.3971 65.7203 34.3401V25.0139C64.6298 24.9651 64.0073 24.9081 63.8527 24.843C63.6899 24.8267 63.5556 24.7576 63.4498 24.6355C63.3522 24.5134 63.3033 24.3629 63.3033 24.1838C63.3033 24.0048 63.3725 23.8583 63.5109 23.7444C63.6492 23.6223 63.7631 23.5613 63.8527 23.5613C63.9503 23.5613 64.0032 23.5653 64.0114 23.5735C64.0276 23.5816 64.1253 23.5938 64.3043 23.6101C64.4834 23.6264 64.7153 23.6467 65.0001 23.6711C65.6756 23.7281 66.3836 23.7566 67.1241 23.7566ZM81.2355 38.283C81.2355 38.0307 81.146 37.8191 80.9669 37.6482C80.796 37.4773 80.5844 37.3918 80.3322 37.3918C80.0799 37.3918 79.8642 37.4773 79.6852 37.6482C79.5143 37.8191 79.4288 38.0307 79.4288 38.283C79.4288 38.5352 79.5143 38.7468 79.6852 38.9177C79.8642 39.0968 80.0799 39.1863 80.3322 39.1863C80.5844 39.1863 80.796 39.0968 80.9669 38.9177C81.146 38.7468 81.2355 38.5352 81.2355 38.283ZM91.587 23.9641C91.4243 23.9804 91.2615 23.9885 91.0988 23.9885H89.7804C88.9991 27.3821 88.3033 30.0798 87.693 32.0818C87.0908 34.0837 86.6961 35.3451 86.5089 35.866C85.6137 38.3155 84.6453 40.0733 83.6036 41.1394C85.1824 40.5779 86.4723 39.345 87.4733 37.4407C87.9209 36.5943 88.2545 35.8375 88.4742 35.1702C88.694 34.4947 88.8811 33.9006 89.0358 33.3879C89.1904 32.8752 89.3491 32.33 89.5118 31.7522C89.6827 31.1663 89.8496 30.5722 90.0123 29.97C90.1751 29.3678 90.3338 28.7737 90.4884 28.1877C90.6512 27.5937 90.7976 27.0362 90.9279 26.5154C91.0662 25.9864 91.1923 25.5022 91.3063 25.0627C91.4202 24.6233 91.5138 24.2571 91.587 23.9641ZM87.6075 22.5359C88.4865 22.6498 89.4956 22.7068 90.6349 22.7068C91.7742 22.7068 92.7915 22.6498 93.6866 22.5359H93.7599C93.9471 22.5359 94.1017 22.6051 94.2238 22.7434C94.3458 22.8736 94.4069 23.0201 94.4069 23.1829C94.4069 23.3456 94.3499 23.488 94.236 23.6101C94.1302 23.7322 93.9959 23.8054 93.8331 23.8298C93.6785 23.8461 93.5239 23.8624 93.3693 23.8787C93.2228 23.8868 93.0682 23.899 92.9054 23.9153C92.8484 24.1431 92.767 24.4646 92.6613 24.8796C92.5636 25.2865 92.4456 25.7545 92.3073 26.2834C92.1689 26.8124 92.0184 27.3861 91.8556 28.0046C91.701 28.6231 91.5382 29.2538 91.3673 29.8967C91.1964 30.5396 91.0214 31.1785 90.8424 31.8132C90.6634 32.448 90.4884 33.0461 90.3175 33.6077C89.9594 34.8284 89.638 35.7805 89.3531 36.4641C89.0765 37.1477 88.7062 37.8679 88.2423 38.6248C87.7866 39.3897 87.2576 40.0693 86.6554 40.6633C85.3289 41.9817 83.8478 42.6409 82.212 42.6409C81.0239 42.6409 80.0392 42.3398 79.2579 41.7375C78.3953 41.0702 77.964 40.1954 77.964 39.113C77.964 38.3074 78.1674 37.6197 78.5743 37.05C79.0219 36.4234 79.6079 36.1101 80.3322 36.1101C80.9344 36.1101 81.4471 36.3217 81.8702 36.7449C82.2934 37.1681 82.505 37.6807 82.505 38.283C82.505 38.877 82.2934 39.3938 81.8702 39.8333C81.4552 40.2564 80.9425 40.468 80.3322 40.468C80.088 40.468 79.8398 40.4233 79.5875 40.3337C80.0026 40.8546 80.4339 41.115 80.8815 41.115C81.3372 41.115 81.7278 41.0051 82.0533 40.7854C82.3789 40.5738 82.684 40.2971 82.9689 39.9553C83.2618 39.6135 83.5304 39.231 83.7745 38.8079C84.0187 38.3847 84.2384 37.9615 84.4337 37.5383C84.8894 36.578 85.1946 35.8416 85.3492 35.3289C85.512 34.808 85.63 34.4377 85.7032 34.218C84.1652 32.1184 83.034 30.0229 82.3097 27.9314C81.8377 26.5886 81.5773 25.3476 81.5284 24.2083C80.1938 24.2083 79.437 24.1106 79.2579 23.9153C79.144 23.7932 79.087 23.6467 79.087 23.4758C79.087 23.3049 79.1521 23.1584 79.2823 23.0364C79.4207 22.9062 79.5712 22.8411 79.734 22.8411H79.8073C80.263 22.9062 80.792 22.9387 81.3942 22.9387C82.5091 22.9387 83.3147 22.898 83.8112 22.8167C84.3076 22.7271 84.6087 22.6824 84.7145 22.6824C84.8284 22.6824 84.9464 22.7515 85.0685 22.8899C85.1987 23.0282 85.2638 23.1747 85.2638 23.3293C85.2638 23.484 85.2109 23.6223 85.1051 23.7444C85.0074 23.8665 84.8325 23.9478 84.5802 23.9885C83.9861 24.0699 83.3961 24.135 82.8102 24.1838C82.8509 25.7056 83.4002 27.557 84.4581 29.738C84.8894 30.6414 85.4632 31.6179 86.1793 32.6677C86.9606 30.0066 87.7296 27.0891 88.4865 23.9153C88.3237 23.899 88.1528 23.8868 87.9738 23.8787C87.8029 23.8624 87.632 23.8461 87.4611 23.8298C87.2983 23.8054 87.16 23.7322 87.046 23.6101C86.9402 23.488 86.8873 23.3375 86.8873 23.1584C86.8873 22.9794 86.9565 22.8329 87.0948 22.719C87.2332 22.5969 87.3797 22.5359 87.5343 22.5359H87.6075ZM106.541 34.0837C107.11 34.0512 107.684 34.0349 108.262 34.0349L108.445 19.2156H106.712L106.541 34.0837ZM103.696 17.8362C104.779 17.9013 106.528 17.9338 108.945 17.9338C111.362 17.9338 114.052 17.7507 117.014 17.3845H117.088C117.275 17.3845 117.425 17.4496 117.539 17.5798C117.653 17.7019 117.71 17.8443 117.71 18.0071V18.0925L117.222 23.2927C117.206 23.4555 117.136 23.5938 117.014 23.7078C116.892 23.8136 116.742 23.8665 116.563 23.8665C116.384 23.8665 116.233 23.7973 116.111 23.6589C115.997 23.5125 115.94 23.3619 115.94 23.2073V23.1584L116.367 18.7639C114.048 18.9999 111.839 19.1423 109.739 19.1912L109.641 26.9915C110.699 26.9915 111.574 26.9304 112.266 26.8083C112.966 26.6781 113.364 26.613 113.462 26.613C113.568 26.613 113.678 26.6619 113.792 26.7595C113.914 26.8572 113.979 26.9996 113.987 27.1868C114.003 27.3658 113.963 27.5204 113.865 27.6506C113.767 27.7808 113.641 27.8582 113.486 27.8826C112.136 28.1348 110.846 28.261 109.617 28.261L109.568 34.0593C109.918 34.0756 110.284 34.0919 110.667 34.1082C111.049 34.1244 111.391 34.1448 111.692 34.1692C112.188 34.218 112.437 34.4581 112.437 34.8894C112.42 35.0522 112.351 35.1905 112.229 35.3044C112.115 35.4102 111.977 35.4631 111.814 35.4631H111.765C110.512 35.3655 109.295 35.3167 108.115 35.3167C106.935 35.3167 105.401 35.4469 103.513 35.7073H103.44C103.253 35.7073 103.098 35.6422 102.976 35.512C102.854 35.3899 102.793 35.2475 102.793 35.0847C102.793 34.922 102.842 34.7795 102.94 34.6575C103.045 34.5354 103.18 34.4622 103.342 34.4377C104.01 34.3401 104.653 34.2668 105.271 34.218L105.442 19.1912C105.141 19.1749 104.84 19.1627 104.539 19.1545C104.238 19.1464 103.965 19.1342 103.721 19.1179C103.249 19.0854 103.013 18.8656 103.013 18.4587C103.013 18.2878 103.078 18.1414 103.208 18.0193C103.338 17.8972 103.493 17.8362 103.672 17.8362H103.696ZM131.187 24.3914H130.698C130.454 24.3914 130.145 24.3751 129.771 24.3425L129.453 34.6086C130.055 34.511 130.654 34.4459 131.248 34.4133L131.443 24.3669C131.353 24.3832 131.268 24.3914 131.187 24.3914ZM129.221 22.9875C129.661 23.0527 130.389 23.0852 131.406 23.0852C132.424 23.0852 133.388 22.9713 134.299 22.7434C134.487 22.7434 134.641 22.8126 134.763 22.9509C134.885 23.0811 134.946 23.2236 134.946 23.3782C134.946 23.5328 134.898 23.6711 134.8 23.7932C134.71 23.9153 134.552 24.0007 134.324 24.0496C134.104 24.0903 133.852 24.1309 133.567 24.1716C133.282 24.2042 133.001 24.2408 132.725 24.2815L132.529 34.3889C133.237 34.3889 133.75 34.4093 134.068 34.45C134.588 34.5151 134.849 34.7348 134.849 35.1091C134.849 35.3126 134.78 35.4713 134.641 35.5852C134.511 35.7073 134.373 35.7683 134.226 35.7683H134.153C132.354 35.5486 130.613 35.63 128.928 36.0125H128.794C128.623 36.0125 128.473 35.9473 128.342 35.8171C128.212 35.6951 128.147 35.5527 128.147 35.3899V35.3655L128.22 33.1316C127.171 35.0522 125.811 36.0125 124.143 36.0125C122.703 36.0125 121.624 35.3655 120.908 34.0715C120.339 33.0217 120.054 31.7847 120.054 30.3606C120.054 28.1552 120.469 26.141 121.299 24.3181L119.102 24.2571C118.923 24.2408 118.772 24.1757 118.65 24.0618C118.536 23.9397 118.479 23.7932 118.479 23.6223C118.479 23.4514 118.54 23.3049 118.662 23.1829C118.784 23.0527 118.939 22.9875 119.126 22.9875L122.349 23.0608C122.528 23.0852 122.674 23.1584 122.788 23.2805C122.91 23.3944 122.971 23.5084 122.971 23.6223C122.971 23.7688 122.939 23.9071 122.874 24.0374C122.328 24.5826 121.877 26.0149 121.519 28.3342C121.388 29.1806 121.323 29.8601 121.323 30.3728C121.323 30.8855 121.364 31.4023 121.445 31.9231C121.535 32.4358 121.686 32.8997 121.897 33.3147C122.377 34.2668 123.118 34.7429 124.119 34.7429C125.12 34.7429 125.995 34.1855 126.743 33.0706C127.492 31.9719 128.029 30.446 128.355 28.4929L128.501 23.5857C128.501 23.4067 128.57 23.2642 128.709 23.1584C128.847 23.0445 128.993 22.9875 129.148 22.9875H129.221ZM141.209 24.9651C140.794 25.0302 140.236 25.0627 139.536 25.0627H139.439V34.2424C139.845 34.2424 140.195 34.2424 140.488 34.2424C140.79 34.2424 141.03 34.2506 141.209 34.2668V24.9651ZM139.561 23.7566C140.44 23.7566 141.205 23.6915 141.856 23.5613C142.043 23.5613 142.197 23.6305 142.319 23.7688C142.45 23.899 142.515 24.0455 142.515 24.2083V25.4656C143.467 24.0658 144.773 23.366 146.433 23.366C148.102 23.366 149.188 24.3914 149.693 26.4421C149.872 27.142 149.961 27.8215 149.961 28.4807C149.961 29.1399 149.941 29.7136 149.9 30.2019C149.859 30.682 149.806 31.1622 149.741 31.6423C149.627 32.5945 149.485 33.4164 149.314 34.1082C149.623 34.1244 149.941 34.1407 150.266 34.157C150.6 34.1733 150.897 34.1936 151.157 34.218C151.629 34.275 151.865 34.5151 151.865 34.9382C151.849 35.101 151.776 35.2393 151.646 35.3533C151.515 35.4591 151.369 35.512 151.206 35.512H151.157C150.376 35.4306 149.522 35.3899 148.594 35.3899C147.674 35.3899 146.812 35.4794 146.006 35.6584C145.835 35.6584 145.685 35.5933 145.554 35.4631C145.424 35.3248 145.359 35.1783 145.359 35.0237C145.359 34.8691 145.408 34.7307 145.505 34.6086C145.611 34.4866 145.786 34.4052 146.03 34.3645C146.397 34.2913 147.048 34.2139 147.984 34.1326C148.252 33.2048 148.435 32.1957 148.533 31.1052C148.63 30.0066 148.679 29.2579 148.679 28.8591C148.679 26.0434 147.931 24.6355 146.433 24.6355C145.359 24.6355 144.427 25.1278 143.638 26.1125C142.889 27.0321 142.515 27.9924 142.515 28.9934V29.0178L142.49 34.3889C142.637 34.4052 142.779 34.4215 142.918 34.4377C143.056 34.4459 143.198 34.4622 143.345 34.4866C143.499 34.5028 143.63 34.572 143.735 34.6941C143.849 34.808 143.906 34.9504 143.906 35.1213C143.906 35.2922 143.837 35.4428 143.699 35.573C143.569 35.7032 143.455 35.7683 143.357 35.7683C143.259 35.7683 143.202 35.7561 143.186 35.7317C141.721 35.5852 140.712 35.512 140.159 35.512C139.076 35.512 138.222 35.5689 137.595 35.6829C136.969 35.8049 136.594 35.866 136.472 35.866C136.358 35.866 136.244 35.7968 136.13 35.6584C136.017 35.5201 135.96 35.3736 135.96 35.219C135.96 35.0644 136.004 34.926 136.094 34.804C136.183 34.6819 136.342 34.6005 136.57 34.5598C137.026 34.4703 137.555 34.3971 138.157 34.3401V25.0139C137.066 24.9651 136.444 24.9081 136.289 24.843C136.126 24.8267 135.992 24.7576 135.886 24.6355C135.789 24.5134 135.74 24.3629 135.74 24.1838C135.74 24.0048 135.809 23.8583 135.947 23.7444C136.086 23.6223 136.2 23.5613 136.289 23.5613C136.387 23.5613 136.44 23.5653 136.448 23.5735C136.464 23.5816 136.562 23.5938 136.741 23.6101C136.92 23.6264 137.152 23.6467 137.437 23.6711C138.112 23.7281 138.82 23.7566 139.561 23.7566ZM162.144 26.2834C161.916 25.5999 161.452 25.0587 160.752 24.6599C160.142 24.31 159.503 24.135 158.836 24.135C158.168 24.135 157.619 24.2245 157.188 24.4036C156.756 24.5745 156.378 24.8105 156.052 25.1116C155.727 25.4045 155.446 25.7504 155.21 26.1492C154.982 26.5398 154.795 26.9508 154.649 27.3821C154.372 28.2122 154.234 29.0138 154.234 29.7869C154.242 30.5518 154.323 31.211 154.478 31.7644C154.64 32.3097 154.876 32.7939 155.186 33.217C155.877 34.1611 156.785 34.6331 157.908 34.6331C158.876 34.6331 159.735 34.1814 160.484 33.2781C161.045 32.5863 161.489 31.7115 161.814 30.6536C162.083 29.7665 162.193 29.1684 162.144 28.8591V26.2834ZM163.438 34.4377C164.007 34.3157 164.597 34.2343 165.208 34.1936V19.0935C164.793 19.1586 164.235 19.1912 163.535 19.1912H163.438V34.4377ZM161.411 17.8118C161.704 17.8362 162.038 17.8606 162.412 17.885C162.787 17.9013 163.291 17.9094 163.926 17.9094C164.561 17.9094 165.155 17.8443 165.708 17.7141H165.867C166.054 17.7141 166.205 17.7792 166.318 17.9094C166.432 18.0315 166.489 18.1739 166.489 18.3367V34.1082H166.734C167.303 34.1082 167.702 34.1204 167.93 34.1448C168.166 34.1692 168.337 34.2424 168.443 34.3645C168.556 34.4866 168.613 34.6371 168.613 34.8162C168.613 34.9952 168.54 35.1458 168.394 35.2678C168.255 35.3818 168.113 35.4387 167.966 35.4387H167.918C167.511 35.4062 167.079 35.3899 166.624 35.3899C166.176 35.3899 165.724 35.4143 165.269 35.4631C164.813 35.512 164.414 35.5649 164.072 35.6218C163.739 35.6869 163.47 35.7439 163.267 35.7927C163.071 35.8416 162.966 35.87 162.949 35.8782C162.933 35.8863 162.909 35.8904 162.876 35.8904H162.791C162.603 35.8904 162.449 35.8212 162.327 35.6829C162.205 35.5527 162.144 35.4062 162.144 35.2434V33.1682C161.541 34.4215 160.589 35.2678 159.287 35.7073C158.856 35.8456 158.327 35.9148 157.7 35.9148C157.082 35.9148 156.467 35.7561 155.857 35.4387C155.247 35.1213 154.73 34.6982 154.307 34.1692C153.428 33.0787 152.98 31.7115 152.964 30.0676C152.964 28.1226 153.436 26.4666 154.38 25.0994C155.397 23.6101 156.825 22.8655 158.665 22.8655C160.048 22.8655 161.208 23.2642 162.144 24.0618V19.1423C162.144 19.1423 161.525 19.0894 160.288 18.9836C160.125 18.9592 159.987 18.886 159.873 18.7639C159.767 18.6418 159.714 18.4954 159.714 18.3245C159.714 18.1536 159.78 18.0111 159.91 17.8972C160.048 17.7751 160.199 17.7141 160.361 17.7141H160.435C160.443 17.7141 160.536 17.7263 160.715 17.7507C160.894 17.767 161.126 17.7874 161.411 17.8118ZM174.778 24.843C174.363 24.9081 173.805 24.9407 173.106 24.9407H173.008V34.1326C173.163 34.1163 173.313 34.1082 173.46 34.1082C173.753 34.1082 174.009 34.1082 174.229 34.1082C174.448 34.1082 174.631 34.1163 174.778 34.1326V24.843ZM174.631 19.7405C174.631 19.4882 174.542 19.2766 174.363 19.1057C174.192 18.9267 173.98 18.8372 173.728 18.8372C173.476 18.8372 173.264 18.9267 173.093 19.1057C172.922 19.2766 172.837 19.4882 172.837 19.7405C172.837 19.9928 172.922 20.2043 173.093 20.3752C173.264 20.5461 173.476 20.6316 173.728 20.6316C173.98 20.6316 174.192 20.5461 174.363 20.3752C174.542 20.2043 174.631 19.9928 174.631 19.7405ZM177.683 35.7927C176.34 35.5242 175.087 35.3899 173.923 35.3899C172.76 35.3899 171.506 35.5242 170.164 35.7927C169.977 35.7927 169.822 35.7236 169.7 35.5852C169.586 35.4469 169.529 35.3004 169.529 35.1458C169.529 34.9911 169.574 34.8528 169.663 34.7307C169.761 34.6086 169.915 34.5273 170.127 34.4866C170.347 34.4377 170.599 34.3971 170.884 34.3645C171.177 34.3238 171.462 34.2831 171.738 34.2424V24.8918L169.859 24.7332C169.696 24.7087 169.561 24.6355 169.456 24.5134C169.358 24.3914 169.309 24.2408 169.309 24.0618C169.309 23.8746 169.382 23.7281 169.529 23.6223C169.675 23.5165 169.818 23.4636 169.956 23.4636H170.029C170.038 23.4636 170.131 23.4758 170.31 23.5002C170.489 23.5165 170.721 23.5369 171.006 23.5613C171.779 23.6264 172.487 23.6589 173.13 23.6589C174.025 23.6589 174.749 23.5938 175.303 23.4636H175.437C175.624 23.4636 175.779 23.5287 175.901 23.6589C176.023 23.781 176.084 23.9234 176.084 24.0862L176.06 34.2424C176.345 34.2831 176.629 34.3238 176.914 34.3645C177.207 34.3971 177.468 34.4377 177.695 34.4866C178.119 34.568 178.33 34.7836 178.33 35.1335C178.33 35.3207 178.261 35.4753 178.123 35.5974C177.984 35.7276 177.838 35.7927 177.683 35.7927ZM175.913 19.7405C175.913 20.3508 175.702 20.8635 175.278 21.2786C174.839 21.7017 174.322 21.9133 173.728 21.9133C173.126 21.9133 172.613 21.7017 172.19 21.2786C171.767 20.8554 171.555 20.3427 171.555 19.7405C171.555 19.1383 171.767 18.6256 172.19 18.2024C172.613 17.7792 173.126 17.5676 173.728 17.5676C174.322 17.5676 174.839 17.7792 175.278 18.2024C175.702 18.6174 175.913 19.1301 175.913 19.7405ZM184.324 24.9651C183.909 25.0302 183.351 25.0627 182.651 25.0627H182.554V34.2424C182.961 34.2424 183.311 34.2424 183.604 34.2424C183.905 34.2424 184.145 34.2506 184.324 34.2668V24.9651ZM182.676 23.7566C183.555 23.7566 184.32 23.6915 184.971 23.5613C185.158 23.5613 185.313 23.6305 185.435 23.7688C185.565 23.899 185.63 24.0455 185.63 24.2083V25.4656C186.582 24.0658 187.888 23.366 189.548 23.366C191.217 23.366 192.303 24.3914 192.808 26.4421C192.987 27.142 193.076 27.8215 193.076 28.4807C193.076 29.1399 193.056 29.7136 193.015 30.2019C192.975 30.682 192.922 31.1622 192.857 31.6423C192.743 32.5945 192.6 33.4164 192.429 34.1082C192.739 34.1244 193.056 34.1407 193.381 34.157C193.715 34.1733 194.012 34.1936 194.273 34.218C194.745 34.275 194.981 34.5151 194.981 34.9382C194.964 35.101 194.891 35.2393 194.761 35.3533C194.631 35.4591 194.484 35.512 194.321 35.512H194.273C193.491 35.4306 192.637 35.3899 191.709 35.3899C190.79 35.3899 189.927 35.4794 189.121 35.6584C188.95 35.6584 188.8 35.5933 188.67 35.4631C188.539 35.3248 188.474 35.1783 188.474 35.0237C188.474 34.8691 188.523 34.7307 188.621 34.6086C188.727 34.4866 188.901 34.4052 189.146 34.3645C189.512 34.2913 190.163 34.2139 191.099 34.1326C191.367 33.2048 191.55 32.1957 191.648 31.1052C191.746 30.0066 191.795 29.2579 191.795 28.8591C191.795 26.0434 191.046 24.6355 189.548 24.6355C188.474 24.6355 187.542 25.1278 186.753 26.1125C186.004 27.0321 185.63 27.9924 185.63 28.9934V29.0178L185.606 34.3889C185.752 34.4052 185.894 34.4215 186.033 34.4377C186.171 34.4459 186.314 34.4622 186.46 34.4866C186.615 34.5028 186.745 34.572 186.851 34.6941C186.965 34.808 187.022 34.9504 187.022 35.1213C187.022 35.2922 186.952 35.4428 186.814 35.573C186.684 35.7032 186.57 35.7683 186.472 35.7683C186.375 35.7683 186.318 35.7561 186.301 35.7317C184.837 35.5852 183.827 35.512 183.274 35.512C182.192 35.512 181.337 35.5689 180.711 35.6829C180.084 35.8049 179.71 35.866 179.588 35.866C179.474 35.866 179.36 35.7968 179.246 35.6584C179.132 35.5201 179.075 35.3736 179.075 35.219C179.075 35.0644 179.12 34.926 179.209 34.804C179.299 34.6819 179.457 34.6005 179.685 34.5598C180.141 34.4703 180.67 34.3971 181.272 34.3401V25.0139C180.182 24.9651 179.559 24.9081 179.404 24.843C179.242 24.8267 179.107 24.7576 179.002 24.6355C178.904 24.5134 178.855 24.3629 178.855 24.1838C178.855 24.0048 178.924 23.8583 179.063 23.7444C179.201 23.6223 179.315 23.5613 179.404 23.5613C179.502 23.5613 179.555 23.5653 179.563 23.5735C179.579 23.5816 179.677 23.5938 179.856 23.6101C180.035 23.6264 180.267 23.6467 180.552 23.6711C181.227 23.7281 181.935 23.7566 182.676 23.7566ZM205.149 29.7502C205.239 29.3271 205.283 28.9161 205.283 28.5173V27.3088C205.283 26.8938 205.275 26.5032 205.259 26.137C204.917 25.3232 204.327 24.7291 203.489 24.3547C203.082 24.1676 202.516 24.0699 201.792 24.0618C201.076 24.0455 200.429 24.196 199.851 24.5134C199.273 24.8227 198.797 25.2458 198.423 25.783C197.707 26.8083 197.349 28.1918 197.349 29.9333C197.365 31.211 197.682 32.273 198.301 33.1194C198.993 34.0634 199.9 34.5354 201.023 34.5354C201.829 34.5354 202.582 34.1692 203.281 33.4368C204.209 32.4765 204.832 31.2476 205.149 29.7502ZM206.48 24.4158L206.577 29.4573C206.577 30.3443 206.577 31.2476 206.577 32.1672C206.585 33.0868 206.557 33.9942 206.492 34.8894C206.345 36.9239 205.967 38.5637 205.357 39.8088C207 38.816 207.908 37.0175 208.079 34.4133C208.209 32.2486 208.274 29.7909 208.274 27.0403V24.4402H208.079L206.48 24.4158ZM205.833 23.0852L208.103 23.1584C209.137 23.1584 209.771 23.134 210.007 23.0852C210.252 23.0364 210.386 23.012 210.41 23.012H210.459C210.63 23.012 210.781 23.0811 210.911 23.2195C211.041 23.3497 211.106 23.4962 211.106 23.6589C211.106 23.8136 211.053 23.9519 210.947 24.074C210.85 24.1879 210.728 24.2571 210.581 24.2815C210.321 24.3303 209.979 24.3751 209.556 24.4158L209.58 27.0403C209.58 29.8398 209.503 32.3219 209.348 34.4866C209.21 36.5618 208.53 38.3033 207.31 39.7112C206.008 41.2086 204.388 41.9573 202.451 41.9573C201.084 41.9573 199.937 41.53 199.009 40.6755C198.089 39.8292 197.63 38.7672 197.63 37.4895V37.4651C197.63 37.2861 197.691 37.1314 197.813 37.0012C197.935 36.8792 198.085 36.8181 198.264 36.8181C198.451 36.8181 198.602 36.8792 198.716 37.0012C198.838 37.1314 198.899 37.3674 198.899 37.7092C198.899 38.051 198.997 38.4172 199.192 38.8079C199.387 39.2066 199.652 39.5484 199.985 39.8333C200.653 40.4029 201.467 40.6877 202.427 40.6877C203.721 40.6877 204.559 39.3043 204.942 36.5374C205.08 35.5771 205.178 34.4337 205.234 33.1072C204.624 34.3523 203.672 35.1864 202.378 35.6096C201.963 35.748 201.442 35.8171 200.816 35.8171C200.197 35.8171 199.583 35.6584 198.972 35.3411C198.362 35.0237 197.845 34.5964 197.422 34.0593C196.543 32.9607 196.095 31.5935 196.079 29.9578C196.079 27.8744 196.568 26.1858 197.544 24.8918C198.618 23.4758 200.103 22.7678 202 22.7678C203.261 22.8085 204.319 23.1829 205.173 23.8909L205.149 23.7566V23.7322C205.149 23.5613 205.218 23.4107 205.357 23.2805C205.495 23.1503 205.645 23.0852 205.808 23.0852H205.833Z" fill="#3F78E7"/>
<circle cx="4.06639" cy="19.6528" r="3.38841" fill="#FF5454"/>
<path d="M12.537 2.71069L13.6781 6.2227H17.3708L14.3833 8.39324L15.5245 11.9052L12.537 9.7347L9.54948 11.9052L10.6906 8.39324L7.70311 6.2227H11.3958L12.537 2.71069Z" fill="#EFD571"/>
<rect x="2.47693" width="5.42146" height="5.42146" transform="rotate(27.1844 2.47693 0)" fill="#00D47B"/>
<circle cx="3.38841" cy="3.38841" r="3.38841" transform="matrix(-1 0 0 1 228.942 47.2643)" fill="#FF5454"/>
<path d="M217.083 33.7107L215.942 37.2227H212.249L215.236 39.3932L214.095 42.9052L217.083 40.7347L220.07 42.9052L218.929 39.3932L221.917 37.2227H218.224L217.083 33.7107Z" fill="#EFD571"/>
<rect width="5.42146" height="5.42146" transform="matrix(-0.889541 0.456856 0.456856 0.889541 227.143 31)" fill="#00D47B"/>
</svg>
