<svg width="35" height="35" viewBox="0 0 35 35" fill="none" xmlns="http://www.w3.org/2000/svg">
<path d="M30.625 27.7083V7.29167C30.625 5.6875 29.3125 4.375 27.7083 4.375H7.29167C5.6875 4.375 4.375 5.6875 4.375 7.29167V27.7083C4.375 29.3125 5.6875 30.625 7.29167 30.625H27.7083C29.3125 30.625 30.625 29.3125 30.625 27.7083ZM12.9792 20.3875L16.0417 24.0771L20.5625 18.2583C20.8542 17.8792 21.4375 17.8792 21.7292 18.2729L26.8479 25.0979C26.9292 25.2062 26.9786 25.3351 26.9908 25.4699C27.003 25.6048 26.9773 25.7404 26.9168 25.8615C26.8562 25.9826 26.7631 26.0845 26.6479 26.1557C26.5327 26.2269 26.4 26.2646 26.2646 26.2646H8.77917C8.16667 26.2646 7.83125 25.5646 8.21042 25.0833L11.8417 20.4167C12.1188 20.0375 12.6729 20.0229 12.9792 20.3875Z" fill="white"/>
</svg>
